<?xml version="1.0" standalone="no"?>
<!DOCTYPE svg PUBLIC "-//W3C//DTD SVG 20010904//EN"
 "http://www.w3.org/TR/2001/REC-SVG-20010904/DTD/svg10.dtd">
<svg version="1.0" xmlns="http://www.w3.org/2000/svg"
 width="234.000000pt" height="204.000000pt" viewBox="0 0 234.000000 204.000000"
 preserveAspectRatio="xMidYMid meet">
<metadata>
Created by potrace 1.10, written by Peter Selinger 2001-2011
</metadata>
<g transform="translate(0.000000,204.000000) scale(0.100000,-0.100000)"
fill="#000000" stroke="none">
<path d="M147 2030 c-70 -13 -138 -85 -136 -144 l1 -31 11 35 c15 45 86 116
126 125 17 3 33 11 36 16 4 5 5 8 3 8 -2 -1 -20 -5 -41 -9z"/>
<path d="M430 2019 c191 -14 363 -29 400 -35 90 -14 230 -60 230 -75 0 -5 3
-8 8 -7 8 3 105 -56 137 -84 11 -9 29 -24 40 -32 19 -14 15 -24 -149 -348 -93
-183 -191 -375 -218 -427 -26 -52 -47 -96 -44 -98 2 -2 28 43 57 101 36 73 56
102 62 93 6 -8 7 -7 3 5 -3 11 26 80 70 170 57 115 78 148 85 137 8 -11 9 -9
5 6 -5 20 155 351 165 341 3 -3 134 -6 291 -6 329 -1 342 -4 401 -89 l32 -46
5 -440 c3 -242 9 -446 13 -452 5 -8 33 -13 76 -13 87 0 158 -33 188 -87 29
-53 27 -169 -3 -210 -35 -47 -92 -72 -173 -77 -39 -2 -77 -9 -85 -15 -8 -7
-15 -40 -18 -84 -6 -93 -33 -148 -90 -181 -60 -35 -114 -42 -181 -22 -95 28
-147 106 -147 222 0 36 -5 56 -17 65 -13 11 -80 14 -337 14 l-321 0 -50 25
c-87 44 -110 106 -103 277 2 64 0 79 -9 71 -9 -7 -13 -46 -13 -125 0 -125 12
-163 67 -215 59 -56 73 -58 433 -58 l330 0 -1 -70 c-2 -94 34 -161 111 -207
46 -28 63 -33 119 -33 78 0 138 26 181 78 37 45 63 128 58 188 l-3 44 68 0
c76 0 128 18 170 58 46 44 57 74 57 160 0 71 -3 83 -29 119 -41 57 -100 83
-189 83 l-71 0 -3 438 c-3 404 -4 440 -22 472 -26 49 -64 88 -111 113 -38 21
-54 22 -338 24 l-298 3 -45 37 c-177 149 -388 205 -763 202 l-146 -2 115 -8z"/>
<path d="M502 1657 c-18 -22 -20 -511 -2 -532 30 -37 237 3 321 61 83 57 125
168 100 265 -17 63 -59 128 -100 152 -90 53 -292 87 -319 54z m169 -21 c133
-28 208 -91 229 -190 36 -175 -85 -294 -317 -313 l-73 -6 0 262 0 261 48 0
c26 0 77 -7 113 -14z"/>
<path d="M1210 1610 c-6 -11 -8 -20 -6 -20 3 0 10 9 16 20 6 11 8 20 6 20 -3
0 -10 -9 -16 -20z"/>
<path d="M1166 1523 c-6 -14 -5 -15 5 -6 7 7 10 15 7 18 -3 3 -9 -2 -12 -12z"/>
<path d="M1097 1383 c-4 -3 -7 -11 -7 -17 0 -6 5 -5 12 2 6 6 9 14 7 17 -3 3
-9 2 -12 -2z"/>
<path d="M1060 1310 c-6 -11 -8 -20 -6 -20 3 0 10 9 16 20 6 11 8 20 6 20 -3
0 -10 -9 -16 -20z"/>
<path d="M1541 1316 c-6 -7 -72 -136 -147 -287 -103 -205 -134 -277 -127 -289
8 -12 33 -16 113 -18 97 -3 105 -1 141 24 66 46 69 58 69 324 0 170 -3 239
-12 248 -15 15 -23 15 -37 -2z m14 -493 c-24 -63 -52 -77 -172 -81 -57 -2
-103 -2 -103 2 0 3 64 134 143 291 l142 285 3 -227 c2 -189 0 -235 -13 -270z"/>
<path d="M1026 1243 c-6 -14 -5 -15 5 -6 7 7 10 15 7 18 -3 3 -9 -2 -12 -12z"/>
<path d="M1005 1210 c-3 -5 -1 -10 4 -10 6 0 11 5 11 10 0 6 -2 10 -4 10 -3 0
-8 -4 -11 -10z"/>
<path d="M915 1029 c-4 -6 -5 -12 -2 -15 2 -3 7 2 10 11 7 17 1 20 -8 4z"/>
<path d="M890 980 c-6 -11 -8 -20 -6 -20 3 0 10 9 16 20 6 11 8 20 6 20 -3 0
-10 -9 -16 -20z"/>
<path d="M866 933 c-6 -14 -5 -15 5 -6 7 7 10 15 7 18 -3 3 -9 -2 -12 -12z"/>
<path d="M817 893 c-4 -3 -7 -11 -7 -17 0 -6 5 -5 12 2 6 6 9 14 7 17 -3 3 -9
2 -12 -2z"/>
<path d="M761 781 l-23 -48 -64 -1 c-83 -1 -123 -16 -156 -60 -23 -29 -28 -45
-28 -94 0 -43 -7 -72 -25 -108 -48 -95 -111 -131 -221 -127 -110 4 -176 57
-215 170 -17 51 -18 51 -18 17 -1 -43 47 -130 88 -159 114 -81 257 -68 347 31
47 53 64 95 64 163 0 106 42 145 157 145 l69 0 27 56 c16 31 26 58 24 60 -2 2
-14 -18 -26 -45z"/>
<path d="M777 763 c-4 -3 -7 -11 -7 -17 0 -6 5 -5 12 2 6 6 9 14 7 17 -3 3 -9
2 -12 -2z"/>
</g>
</svg>
