 <svg version="1.0" xmlns="http://www.w3.org/2000/svg"  width="234.000000pt" height="204.000000pt" viewBox="0 0 234.000000 204.000000"  preserveAspectRatio="xMidYMid meet">  <g transform="translate(0.000000,204.000000) scale(0.100000,-0.100000)" fill="#9900ff" stroke="none"> <path d="M175 2035 c-5 -2 -22 -6 -37 -9 -34 -8 -93 -59 -116 -100 -16 -28 -17 -91 -17 -721 0 -768 -4 -722 69 -803 52 -58 124 -86 203 -79 141 11 233 117 233 267 0 54 3 60 35 89 33 29 41 31 113 31 l78 0 29 59 c18 36 33 55 37 48 5 -7 8 -2 8 12 0 13 93 206 206 430 114 223 215 423 226 444 11 22 22 37 25 34 2 -3 -25 -64 -62 -136 -60 -117 -66 -132 -52 -146 21 -20 30 -19 16 3 -9 14 0 40 51 140 l62 122 301 0 c165 0 298 2 296 5 -3 2 -138 5 -301 5 -262 1 -297 3 -302 17 -4 9 -4 18 -1 21 3 3 5 0 5 -6 0 -8 86 -11 294 -12 269 0 297 -2 333 -20 42 -20 64 -50 38 -50 -8 0 -15 8 -16 18 0 10 -2 12 -6 4 -3 -7 2 -23 10 -36 9 -12 17 -36 19 -52 2 -16 8 -27 13 -24 12 6 8 50 -6 66 -7 8 -6 14 1 19 6 4 18 -10 28 -32 15 -34 17 -85 20 -467 1 -236 4 -432 7 -434 10 -11 5 857 -6 885 -20 54 -61 102 -104 122 -41 19 -63 21 -330 21 l-287 1 -66 55 c-142 117 -301 172 -557 193 -128 11 -473 22 -490 16z m568 -415 c115 -43 174 -130 165 -245 -6 -68 -23 -107 -64 -149 -53 -53 -147 -87 -276 -100 l-58 -6 0 266 0 267 88 -6 c52 -3 110 -14 145 -27z m64 -747 c-4 -3 -7 0 -7 7 0 7 3 10 7 7 3 -4 3 -10 0 -14z"></path> <path d="M1270 1654 c0 -9 -10 -30 -22 -47 -12 -17 -23 -37 -24 -45 -1 -7 -11 -30 -22 -51 -13 -25 -17 -43 -11 -52 7 -11 9 -11 9 -1 0 19 53 132 62 132 4 0 8 -10 10 -22 2 -13 4 5 4 40 0 34 -1 62 -3 62 -1 0 -3 -7 -3 -16z"></path> <path d="M1922 1620 c0 -19 2 -27 5 -17 2 9 2 25 0 35 -3 9 -5 1 -5 -18z"></path> <path d="M1968 1303 c1 -148 3 -333 5 -413 1 -80 4 41 5 268 1 226 -1 412 -5 412 -5 0 -7 -120 -5 -267z"></path> <path d="M1250 1525 c0 -8 5 -15 10 -15 6 0 10 -12 10 -27 0 -14 3 -24 6 -20 9 9 -5 77 -16 77 -6 0 -10 -7 -10 -15z"></path> <path d="M1230 1480 c0 -11 5 -20 10 -20 6 0 10 9 10 20 0 11 -4 20 -10 20 -5 0 -10 -9 -10 -20z"></path> <path d="M1120 1450 c0 -7 3 -10 7 -7 3 4 3 10 0 14 -4 3 -7 0 -7 -7z"></path> <path d="M1190 1429 c0 -5 5 -7 10 -4 6 3 10 8 10 11 0 2 -4 4 -10 4 -5 0 -10 -5 -10 -11z"></path> <path d="M1045 1287 c-38 -78 -74 -146 -80 -150 -6 -5 -4 -7 5 -5 15 5 20 13 92 150 40 75 67 148 56 148 -2 0 -34 -64 -73 -143z"></path> <path d="M1203 1403 c4 -3 10 -3 14 0 3 4 0 7 -7 7 -7 0 -10 -3 -7 -7z"></path> <path d="M1445 1390 c-3 -5 -1 -10 4 -10 6 0 11 5 11 10 0 6 -2 10 -4 10 -3 0 -8 -4 -11 -10z"></path> <path d="M1523 1393 c4 -3 10 -3 14 0 3 4 0 7 -7 7 -7 0 -10 -3 -7 -7z"></path> <path d="M1563 1373 c4 -3 10 -3 14 0 3 4 0 7 -7 7 -7 0 -10 -3 -7 -7z"></path> <path d="M1073 1262 c-24 -48 -43 -94 -42 -102 0 -9 5 -6 11 8 14 27 28 29 28 2 0 -11 5 -20 10 -20 6 0 10 9 10 20 0 11 5 20 10 20 6 0 10 -10 10 -22 0 -12 3 -19 6 -16 8 9 -7 78 -17 78 -5 0 -9 -9 -9 -20 0 -11 -4 -20 -10 -20 -16 0 -12 26 9 63 17 30 37 97 29 97 -2 0 -22 -40 -45 -88z"></path> <path d="M1560 1330 c0 -5 4 -10 9 -10 6 0 13 5 16 10 3 6 -1 10 -9 10 -9 0 -16 -4 -16 -10z"></path> <path d="M1476 1304 c-9 -23 -7 -54 3 -54 5 0 11 16 13 35 4 36 -5 47 -16 19z"></path> <path d="M1520 1308 c0 -12 -32 -85 -66 -150 -8 -14 -14 -34 -14 -45 0 -10 23 27 50 82 50 100 58 125 40 125 -5 0 -10 -6 -10 -12z"></path> <path d="M1586 1298 c-3 -13 -6 -119 -6 -236 0 -227 -6 -264 -50 -295 -12 -8 -20 -19 -17 -24 3 -5 -4 -9 -16 -9 -166 -2 -217 -5 -217 -15 0 -7 35 -9 113 -6 121 4 149 11 140 33 -7 18 12 18 31 -1 20 -20 32 -19 15 2 -12 15 -12 16 4 10 11 -4 16 -3 12 4 -4 5 -16 7 -27 3 l-21 -6 21 29 c19 27 21 45 25 281 2 139 3 252 1 252 -1 0 -4 -10 -8 -22z"></path> <path d="M1442 1280 c0 -19 2 -27 5 -17 2 9 2 25 0 35 -3 9 -5 1 -5 -18z"></path> <path d="M1111 1254 c0 -11 3 -14 6 -6 3 7 2 16 -1 19 -3 4 -6 -2 -5 -13z"></path> <path d="M1444 1226 c-3 -8 -4 -23 -1 -33 3 -12 5 -9 6 9 0 14 7 29 14 31 9 4 9 6 -1 6 -7 1 -15 -5 -18 -13z"></path> <path d="M886 978 c-38 -76 -65 -142 -61 -146 7 -6 17 8 16 23 0 2 14 31 32 62 54 95 89 172 85 186 -2 8 -34 -48 -72 -125z"></path> <path d="M988 1113 c7 -3 16 -2 19 1 4 3 -2 6 -13 5 -11 0 -14 -3 -6 -6z"></path> <path d="M1023 1105 c0 -8 6 -16 13 -19 7 -3 10 2 7 15 -6 22 -20 26 -20 4z"></path> <path d="M993 1083 c4 -3 10 -3 14 0 3 4 0 7 -7 7 -7 0 -10 -3 -7 -7z"></path> <path d="M1083 1083 c4 -3 10 -3 14 0 3 4 0 7 -7 7 -7 0 -10 -3 -7 -7z"></path> <path d="M1280 1055 c0 -14 2 -25 4 -25 2 0 6 11 8 25 3 14 1 25 -3 25 -5 0 -9 -11 -9 -25z"></path> <path d="M1413 1073 c-7 -2 -13 -11 -13 -19 0 -8 -6 -25 -14 -37 -37 -61 -95 -180 -101 -209 -3 -18 27 32 66 112 40 80 78 148 84 152 11 9 -3 9 -22 1z"></path> <path d="M1310 1056 c0 -8 5 -18 10 -21 6 -3 10 3 10 14 0 12 -4 21 -10 21 -5 0 -10 -6 -10 -14z"></path> <path d="M1355 1055 c-4 -11 -11 -28 -16 -37 -5 -11 -5 -19 1 -23 6 -3 10 -1 10 6 0 7 7 20 14 28 10 11 12 21 6 31 -7 12 -10 11 -15 -5z"></path> <path d="M950 1021 c0 -11 -3 -21 -7 -23 -12 -5 -84 -160 -78 -166 8 -9 25 11 25 29 0 10 5 19 10 19 6 0 10 9 10 20 0 11 5 20 10 20 6 0 10 9 10 20 0 11 5 20 10 20 6 0 10 -9 10 -20 0 -11 -4 -20 -10 -20 -5 0 -10 -9 -10 -19 0 -11 -4 -23 -10 -26 -13 -8 -13 -42 0 -50 6 -4 10 -3 9 2 -1 4 -1 18 0 31 1 31 19 28 23 -5 2 -16 3 20 4 80 0 59 -2 107 -3 107 -2 0 -3 -9 -3 -19z"></path> <path d="M1290 1008 c0 -7 -3 -24 -6 -38 -5 -23 -5 -23 10 4 18 33 20 46 6 46 -5 0 -10 -6 -10 -12z"></path> <path d="M1301 937 c-12 -27 -20 -56 -18 -65 3 -12 5 -10 6 6 0 12 6 22 11 22 6 0 10 9 10 19 0 11 5 21 11 23 6 2 9 13 7 23 -3 15 -10 8 -27 -28z"></path> <path d="M840 810 c-13 -8 -12 -10 3 -10 9 0 17 5 17 10 0 12 -1 12 -20 0z"></path> <path d="M772 754 c-19 -38 -22 -62 -22 -159 0 -97 3 -120 21 -152 30 -55 76 -91 132 -103 63 -13 667 -14 667 0 0 6 -113 10 -319 10 -322 0 -386 4 -374 23 3 6 1 7 -6 3 -16 -11 -81 41 -81 64 0 10 -4 22 -10 25 -14 8 -13 252 0 260 8 5 10 -34 9 -119 -1 -69 1 -129 5 -134 5 -4 6 61 5 143 -2 83 0 155 4 162 4 6 4 14 -1 17 -5 3 -18 -15 -30 -40z"></path> <path d="M885 790 c-3 -5 1 -10 9 -10 9 0 16 5 16 10 0 6 -4 10 -9 10 -6 0 -13 -4 -16 -10z"></path> <path d="M1590 790 c0 -7 3 -10 7 -7 3 4 3 10 0 14 -4 3 -7 0 -7 -7z"></path> <path d="M828 763 c6 -2 18 -2 25 0 6 3 1 5 -13 5 -14 0 -19 -2 -12 -5z"></path> <path d="M1926 735 c-3 -8 -1 -15 4 -15 6 0 10 7 10 15 0 8 -2 15 -4 15 -2 0 -6 -7 -10 -15z"></path> <path d="M2033 716 c0 -10 9 -11 36 -5 19 4 39 6 43 3 4 -3 29 -7 54 -9 53 -4 114 -46 125 -86 11 -38 10 -145 -1 -174 -21 -56 -79 -86 -175 -92 -38 -3 -77 -7 -85 -10 -8 -4 -18 -6 -21 -5 -3 0 -5 -25 -4 -56 1 -113 -30 -183 -98 -219 -76 -39 -213 -22 -256 33 -11 14 -22 21 -25 16 -7 -12 41 -55 85 -75 47 -21 133 -20 184 3 83 38 125 111 125 218 l0 69 89 6 c98 6 151 30 186 83 19 30 32 144 21 189 -9 36 -56 86 -101 106 -50 23 -182 27 -182 5z"></path> <path d="M2002 684 c-1 -16 3 -24 14 -24 8 0 13 4 10 8 -7 12 137 6 161 -7 26 -13 43 -14 43 -2 0 11 -43 20 -135 29 -38 4 -75 10 -80 14 -6 4 -12 -4 -13 -18z"></path> <path d="M1280 684 c0 -13 213 -14 225 -2 4 4 -45 8 -109 10 -82 2 -116 0 -116 -8z"></path> <path d="M2246 622 c8 -81 5 -184 -6 -198 -15 -17 1 -19 18 -2 18 18 16 205 -2 223 -12 12 -13 9 -10 -23z"></path> <path d="M1280 640 c0 -6 43 -10 110 -10 67 0 110 4 110 10 0 6 -43 10 -110 10 -67 0 -110 -4 -110 -10z"></path> <path d="M2045 640 c7 -12 125 -11 125 1 0 5 -30 9 -66 9 -40 0 -63 -4 -59 -10z"></path> <path d="M1515 620 c-3 -6 -58 -11 -123 -12 l-117 -2 110 -3 c60 -2 119 1 130 6 11 5 27 12 35 14 9 4 7 6 -7 6 -12 1 -25 -3 -28 -9z"></path> <path d="M2190 620 c0 -5 9 -10 20 -10 11 0 20 5 20 10 0 6 -9 10 -20 10 -11 0 -20 -4 -20 -10z"></path> <path d="M1993 603 c4 -3 10 -3 14 0 3 4 0 7 -7 7 -7 0 -10 -3 -7 -7z"></path> <path d="M2053 603 c20 -2 54 -2 75 0 20 2 3 4 -38 4 -41 0 -58 -2 -37 -4z"></path> <path d="M810 429 c14 -13 38 -26 95 -50 19 -9 688 -18 679 -10 -2 2 0 9 5 15 7 8 -87 11 -332 11 -315 1 -393 6 -407 25 -3 4 -16 11 -30 15 -21 7 -22 6 -10 -6z"></path> <path d="M873 433 c9 -2 23 -2 30 0 6 3 -1 5 -18 5 -16 0 -22 -2 -12 -5z"></path> <path d="M1960 425 c0 -8 7 -15 16 -15 14 0 14 3 4 15 -7 8 -14 15 -16 15 -2 0 -4 -7 -4 -15z"></path> <path d="M2183 433 c9 -2 25 -2 35 0 9 3 1 5 -18 5 -19 0 -27 -2 -17 -5z"></path> <path d="M920 420 c0 -6 115 -10 326 -10 214 0 323 3 319 10 -8 14 -645 14 -645 0z"></path> <path d="M2040 420 c0 -5 7 -10 15 -10 8 0 15 5 15 10 0 6 -7 10 -15 10 -8 0 -15 -4 -15 -10z"></path> <path d="M2080 420 c0 -5 16 -10 35 -10 19 0 35 5 35 10 0 6 -16 10 -35 10 -19 0 -35 -4 -35 -10z"></path> <path d="M2180 400 c-8 -5 -43 -10 -77 -10 -34 0 -65 -4 -68 -10 -4 -6 18 -10 59 -10 36 0 68 5 71 10 3 6 17 10 31 10 13 0 24 5 24 10 0 13 -20 13 -40 0z"></path> <path d="M1928 333 c7 -3 16 -2 19 1 4 3 -2 6 -13 5 -11 0 -14 -3 -6 -6z"></path> <path d="M1581 259 c1 -35 5 -75 9 -89 5 -16 7 7 5 59 -5 99 -15 123 -14 30z"></path> <path d="M1933 283 c4 -3 10 -3 14 0 3 4 0 7 -7 7 -7 0 -10 -3 -7 -7z"></path> <path d="M1960 283 c0 -5 5 -15 10 -23 8 -12 10 -11 10 8 0 12 -4 22 -10 22 -5 0 -10 -3 -10 -7z"></path> <path d="M1925 230 c-3 -6 1 -7 9 -4 18 7 21 14 7 14 -6 0 -13 -4 -16 -10z"></path> <path d="M1956 204 c-3 -9 -6 -27 -6 -40 0 -13 -4 -24 -10 -24 -5 0 -10 -6 -10 -13 0 -23 -61 -40 -142 -39 -47 1 -76 -3 -73 -9 4 -5 39 -9 80 -9 118 0 159 28 179 123 7 29 -8 38 -18 11z"></path> <path d="M1922 175 c0 -16 2 -22 5 -12 2 9 2 23 0 30 -3 6 -5 -1 -5 -18z"></path> <path d="M1666 105 c4 -8 13 -15 21 -15 13 0 13 3 3 15 -7 8 -16 15 -21 15 -5 0 -6 -7 -3 -15z"></path> <path d="M1753 113 c26 -2 68 -2 95 0 26 2 4 3 -48 3 -52 0 -74 -1 -47 -3z"></path> </g> </svg> 